<?xml version="1.0" encoding="UTF-8"?>
<svg version="1.1" xmlns="http://www.w3.org/2000/svg" width="1024" height="1024">
<path d="M0 0 C337.92 0 675.84 0 1024 0 C1024 337.92 1024 675.84 1024 1024 C686.08 1024 348.16 1024 0 1024 C0 686.08 0 348.16 0 0 Z " fill="#031831" transform="translate(0,0)"/>
<path d="M0 0 C2.31500966 2.31500966 2.46851952 3.34541457 3.0625 6.5 C3.21847656 7.2940625 3.37445312 8.088125 3.53515625 8.90625 C12.85865633 70.95845224 -7.57812224 131.12357578 -44.0625 180.875 C-49.28243399 187.90584406 -54.74837811 194.65641735 -60.51513672 201.24438477 C-61.62203564 202.55311711 -62.69692556 203.88905047 -63.75439453 205.23803711 C-70.29685675 213.5245857 -77.60644087 220.94497086 -85.07617188 228.3918457 C-87.26844604 230.58091911 -89.44693064 232.78313095 -91.625 234.98632812 C-93.02523193 236.38882972 -94.42624541 237.79055158 -95.828125 239.19140625 C-96.47404602 239.84653702 -97.11996704 240.50166779 -97.78546143 241.176651 C-103.84385523 247.17330696 -103.84385523 247.17330696 -108 248 C-109.89013672 247.34423828 -109.89013672 247.34423828 -111.6796875 246.0703125 C-112.35338379 245.60842529 -113.02708008 245.14653809 -113.72119141 244.6706543 C-114.43194824 244.16058838 -115.14270508 243.65052246 -115.875 243.125 C-117.39799809 242.08796393 -118.92409871 241.05547097 -120.453125 240.02734375 C-121.21689453 239.51155762 -121.98066406 238.99577148 -122.76757812 238.46435547 C-137.29055189 228.93802163 -153.05133124 223.02414943 -169.95751953 219.43798828 C-173.16884455 218.74935368 -176.36417569 217.99662294 -179.5625 217.25 C-181.37491088 216.83294584 -183.1873735 216.416116 -185 216 C-184.78779947 205.08131817 -182.20608116 195.36606389 -179 185 C-178.74089844 184.15824219 -178.48179687 183.31648437 -178.21484375 182.44921875 C-177.51309145 180.28513232 -176.76022395 178.1443088 -176 176 C-175.55275367 174.69162203 -175.10621419 173.38300235 -174.66015625 172.07421875 C-172.16947897 164.82442449 -169.58684891 157.74470905 -166.27563477 150.8203125 C-164.9938726 147.98645288 -163.91683394 145.13251418 -162.8515625 142.2109375 C-159.71976752 134.01200108 -155.87933964 126.21015831 -151.9375 118.375 C-151.56350067 117.6284314 -151.18950134 116.88186279 -150.8041687 116.1126709 C-144.86129451 104.28293513 -138.53459552 92.90316469 -131 82 C-130.34161133 81.02812744 -130.34161133 81.02812744 -129.66992188 80.03662109 C-124.33123385 72.16981367 -118.59092505 64.87238805 -112 58 C-111.31679688 57.26523437 -110.63359375 56.53046875 -109.9296875 55.7734375 C-103.53612823 49.09676859 -96.3904768 43.515171 -89 38 C-88.33935547 37.50564453 -87.67871094 37.01128906 -86.99804688 36.50195312 C-65.65477349 20.66267574 -40.26515402 6.03526652 -13.8125 1.3125 C-12.80413086 1.11817383 -12.80413086 1.11817383 -11.77539062 0.91992188 C-7.81023131 0.19020901 -4.02850765 -0.31631245 0 0 Z " fill="#13AED0" transform="translate(630,227)"/>
<path d="M0 0 C7.74748307 0.15171312 14.99282568 2.21471255 22.375 4.375 C23.5815625 4.725625 24.788125 5.07625 26.03125 5.4375 C36.88197548 8.83424884 47.10990464 13.52443773 57.375 18.375 C58.12023926 18.72498047 58.86547852 19.07496094 59.63330078 19.43554688 C82.68142467 30.334637 82.68142467 30.334637 87.375 37.375 C88.98333902 46.86420023 83.79771237 54.3526158 79.375 62.375 C78.57643466 63.85786389 77.77825758 65.34093694 76.98046875 66.82421875 C76.19740362 68.25895579 75.41230723 69.69258641 74.625 71.125 C74.26092041 71.79217041 73.89684082 72.45934082 73.52172852 73.14672852 C70.85850171 77.88236805 68.65295766 81.61568078 63.375 83.375 C61.30166075 83.57112912 59.22360374 83.71876582 57.14453125 83.83984375 C55.87794678 83.9167041 54.6113623 83.99356445 53.30639648 84.07275391 C52.63454315 84.11184875 51.96268982 84.1509436 51.27047729 84.19122314 C47.75009666 84.39618971 44.2304625 84.61291176 40.7109375 84.83203125 C40.00297531 84.87604065 39.29501312 84.92005005 38.56559753 84.96539307 C32.13839405 85.37353406 25.72662837 85.92313938 19.3125 86.5 C10.9674426 87.24124357 2.75838911 87.64067078 -5.625 87.375 C-6.23085938 86.27285156 -6.83671875 85.17070312 -7.4609375 84.03515625 C-12.30476728 75.25522726 -17.22272223 66.53615613 -22.39990234 57.94750977 C-25.92373623 52.04923157 -28.46915385 47.4758236 -27.625 40.375 C-26.09396571 36.37221187 -24.16627939 32.61025942 -22.1875 28.8125 C-21.64561035 27.75144043 -21.1037207 26.69038086 -20.54541016 25.59716797 C-7.34573965 0.11096283 -7.34573965 0.11096283 0 0 Z " fill="#061B34" transform="translate(519.625,300.625)"/>
<path d="M0 0 C0 0.66 0 1.32 0 2 C-1.8359375 3.41015625 -1.8359375 3.41015625 -4.375 5.0625 C-10.04839507 8.92745038 -15.02163128 13.28575696 -20 18 C-20.73992187 18.68707031 -21.47984375 19.37414062 -22.2421875 20.08203125 C-28.37482389 25.96368786 -33.50343165 32.49218783 -38.64453125 39.22998047 C-39.91819223 40.89317249 -41.20569776 42.54425257 -42.5 44.19140625 C-51.51823897 55.73879878 -60.01834299 67.71244908 -68 80 C-69.66666667 79.58333333 -71.33333333 79.16666667 -73 78.75 C-74.09183594 78.48058594 -75.18367187 78.21117187 -76.30859375 77.93359375 C-78.87389588 77.28480305 -81.42287721 76.61399183 -83.97265625 75.91015625 C-95.39445945 72.38350575 -95.39445945 72.38350575 -107 73 C-113.44412316 79.54188369 -117.2629762 88.86975453 -121.375 97 C-122.00843722 98.23862789 -122.64254845 99.47691133 -123.27734375 100.71484375 C-128.05008323 109.39629165 -128.05008323 109.39629165 -129 119 C-127.79792489 122.32268651 -127.79792489 122.32268651 -126 125.5625 C-125.6896582 126.15603271 -125.37931641 126.74956543 -125.05957031 127.36108398 C-121.04494802 134.95990514 -116.87089561 142.56259395 -112.203125 149.77734375 C-111.80609375 150.51082031 -111.4090625 151.24429688 -111 152 C-112 154 -112 154 -113.8894043 155.82617188 C-116.04418292 158.04550662 -117.32504983 160.05784225 -118.76953125 162.78125 C-119.26251709 163.7000293 -119.75550293 164.61880859 -120.26342773 165.56542969 C-121.03021851 167.01804199 -121.03021851 167.01804199 -121.8125 168.5 C-122.88143995 170.49552751 -123.95174229 172.49032585 -125.0234375 174.484375 C-125.53616211 175.44021484 -126.04888672 176.39605469 -126.57714844 177.38085938 C-128.29750998 180.54764707 -130.09649771 183.65192566 -131.9375 186.75 C-134.87751534 191.72541058 -137.46782991 196.80798737 -140 202 C-141.41157923 204.83588176 -142.83106549 207.66779289 -144.25 210.5 C-144.94283456 211.88535355 -145.63555112 213.27076612 -146.328125 214.65625 C-147.21875 216.4375 -148.109375 218.21875 -149 220 C-158.37823959 218.17104871 -167.7028142 216.21062934 -177 214 C-176.78779947 203.08131817 -174.20608116 193.36606389 -171 183 C-170.74089844 182.15824219 -170.48179687 181.31648437 -170.21484375 180.44921875 C-169.51309145 178.28513232 -168.76022395 176.1443088 -168 174 C-167.55275367 172.69162203 -167.10621419 171.38300235 -166.66015625 170.07421875 C-164.16947897 162.82442449 -161.58684891 155.74470905 -158.27563477 148.8203125 C-156.9938726 145.98645288 -155.91683394 143.13251418 -154.8515625 140.2109375 C-151.71976752 132.01200108 -147.87933964 124.21015831 -143.9375 116.375 C-143.56350067 115.6284314 -143.18950134 114.88186279 -142.8041687 114.1126709 C-136.86129451 102.28293513 -130.53459552 90.90316469 -123 80 C-122.34161133 79.02812744 -122.34161133 79.02812744 -121.66992188 78.03662109 C-116.33123385 70.16981367 -110.59092505 62.87238805 -104 56 C-103.31679688 55.26523437 -102.63359375 54.53046875 -101.9296875 53.7734375 C-95.53612823 47.09676859 -88.3904768 41.515171 -81 36 C-80.33935547 35.50564453 -79.67871094 35.01128906 -78.99804688 34.50195312 C-58.49835262 19.28871297 -33.97785309 4.88257575 -8.6875 -0.25 C-7.48673828 -0.50523437 -7.48673828 -0.50523437 -6.26171875 -0.765625 C-3.89082784 -1.01131318 -2.25506193 -0.72244547 0 0 Z " fill="#0D7DD6" transform="translate(622,229)"/>
<path d="M0 0 C-0.64596973 2.8613532 -1.53592584 5.43756255 -2.70703125 8.125 C-3.04444336 8.90818604 -3.38185547 9.69137207 -3.72949219 10.49829102 C-4.26558105 11.73663696 -4.26558105 11.73663696 -4.8125 13 C-7.49875714 19.28082134 -10.01586399 25.52637152 -12.015625 32.06640625 C-12.88648124 34.66169608 -13.87093089 37.14664635 -14.9140625 39.67578125 C-17.02649201 44.90190461 -18.62488133 50.19599912 -20.125 55.625 C-20.37636719 56.51445312 -20.62773437 57.40390625 -20.88671875 58.3203125 C-22.34907232 63.52659746 -23.69779961 68.75156929 -25 74 C-26.01199463 74.16604736 -27.02398926 74.33209473 -28.06665039 74.50317383 C-31.89716158 75.13239771 -35.72709666 75.76507285 -39.55688477 76.39868164 C-41.20028927 76.67010039 -42.84383946 76.94063873 -44.48754883 77.21020508 C-65.56551176 80.55274476 -65.56551176 80.55274476 -86.09765625 86.23046875 C-89.18193535 87.04823858 -91.82359733 87.13687322 -95 87 C-94.41863096 83.21837279 -93.35012483 80.47966121 -91.41015625 77.19140625 C-90.8780957 76.28632324 -90.34603516 75.38124023 -89.79785156 74.44873047 C-89.22518555 73.49627441 -88.65251953 72.54381836 -88.0625 71.5625 C-87.4756543 70.57910645 -86.88880859 69.59571289 -86.28417969 68.58251953 C-81.55965728 60.7507052 -76.49918327 53.30159117 -71 46 C-70.22914063 44.95585937 -69.45828125 43.91171875 -68.6640625 42.8359375 C-63.91898656 36.43899212 -59.04550879 30.162221 -54 24 C-53.41089844 23.22785156 -52.82179688 22.45570313 -52.21484375 21.66015625 C-40.71642257 7.37867771 -18.06710709 -1.06277101 0 0 Z " fill="#096ADE" transform="translate(464,345)"/>
<path d="M0 0 C6.24740541 15.13327815 9.32193649 34.60159137 5.0078125 50.703125 C3.53292778 53.95287098 1.82856293 56.93532854 0 60 C-0.74475335 61.43999212 -1.47836021 62.88578204 -2.203125 64.3359375 C-7.60796102 75.08992403 -13.72306875 85.27415559 -20.29052734 95.35205078 C-22.20701294 98.32066014 -24.08221865 101.3135049 -25.95703125 104.30859375 C-27.30407508 106.43528386 -28.65172299 108.56159148 -30 110.6875 C-30.63510498 111.71069336 -31.27020996 112.73388672 -31.92456055 113.78808594 C-32.82815308 115.19815918 -32.82815308 115.19815918 -33.75 116.63671875 C-34.28109375 117.47936279 -34.8121875 118.32200684 -35.359375 119.19018555 C-35.90078125 119.78742432 -36.4421875 120.38466309 -37 121 C-38.32 121 -39.64 121 -41 121 C-41.12004395 120.30664551 -41.24008789 119.61329102 -41.36376953 118.89892578 C-44.19599743 102.78213689 -47.82810538 87.72146227 -53.75 72.484375 C-54.03238525 71.7517041 -54.31477051 71.0190332 -54.60571289 70.26416016 C-55.14443913 68.8786834 -55.69500148 67.49772731 -56.25952148 66.12255859 C-57.25290304 63.60766024 -58.0275276 61.51843643 -57.8828125 58.79296875 C-56.73492933 56.46164851 -55.31160592 54.98825539 -53.4375 53.1875 C-52.79683594 52.56230469 -52.15617188 51.93710937 -51.49609375 51.29296875 C-49.4772714 49.43843241 -47.42949003 47.64602139 -45.3515625 45.859375 C-40.32677374 41.48045501 -35.63800911 36.78426235 -30.9375 32.0625 C-30.07833984 31.20720703 -29.21917969 30.35191406 -28.33398438 29.47070312 C-20.71001919 21.83508941 -13.78784178 13.81220248 -7.015625 5.41796875 C-2.49919225 0 -2.49919225 0 0 0 Z " fill="#0EC0C9" transform="translate(604,412)"/>
<path d="M0 0 C21.18360647 8.98411881 37.7386003 47.24528889 46 67 C47.49588208 70.96277532 48.78250108 74.9453935 50 79 C50.46840981 80.35037847 50.93720154 81.70062448 51.40625 83.05078125 C53.33235555 88.80159919 54.72544211 94.6653679 56.125 100.5625 C56.38925781 101.64724609 56.65351562 102.73199219 56.92578125 103.84960938 C57.17972656 104.91115234 57.43367187 105.97269531 57.6953125 107.06640625 C57.92234863 108.01459229 58.14938477 108.96277832 58.38330078 109.93969727 C59.81717171 117.05512564 60.04141364 123.61792439 59.7890625 130.8359375 C59.74299012 133.69916789 59.71025066 136.56235677 59.67871094 139.42578125 C59.6429576 141.38896462 59.58214697 143.35185425 59.49609375 145.31347656 C58.6734095 156.09529923 58.6734095 156.09529923 62.39492798 165.80499268 C65.91482725 168.95261468 69.91836332 171.05282769 74.15771484 173.07684326 C76.64341698 174.32241193 78.77403033 175.89807569 80.96484375 177.6015625 C81.63837891 178.11074219 82.31191406 178.61992188 83.00585938 179.14453125 C83.64330078 179.63308594 84.28074219 180.12164063 84.9375 180.625 C85.98067383 181.41583984 85.98067383 181.41583984 87.04492188 182.22265625 C88.69955937 183.47789849 90.35027032 184.73831449 92 186 C91.67 186.66 91.34 187.32 91 188 C90.28682617 187.64808594 89.57365234 187.29617188 88.83886719 186.93359375 C52.71362347 169.16670021 15.41698129 156.33999959 -24 148 C-24.88294913 145.53556603 -25.11277626 144.33179963 -24.2578125 141.81640625 C-23.88398437 141.07261719 -23.51015625 140.32882812 -23.125 139.5625 C-21.53576996 136.36736968 -20.58481782 133.52757133 -20 130 C-13.96098328 131.41916893 -8.00955683 132.83082834 -2.23828125 135.125 C0.71293138 136.27870267 3.69936177 137.32075057 6.6875 138.375 C9.12565424 139.24817532 11.5631623 140.12315722 14 141 C15.06605469 141.38027344 16.13210938 141.76054687 17.23046875 142.15234375 C26.17055497 145.45073581 34.54376358 149.64200785 43 154 C44.33253912 154.66825273 45.66568285 155.33530461 47 156 C46.06212393 123.68521309 43.17403341 93.91529838 30 64 C29.7323584 63.37496582 29.4647168 62.74993164 29.18896484 62.10595703 C22.59323926 46.7879337 13.51487739 29.79437188 1.17578125 18.30078125 C-0.62330544 16.56638083 -1.89990388 15.24938353 -3 13 C-2.93667747 8.44711033 -2.04233072 4.08466144 0 0 Z " fill="#09BBB7" transform="translate(646,335)"/>
<path d="M0 0 C43.52860412 0 43.52860412 0 54 8 C59.2547048 13.46341971 61.0845059 19.30769413 61.3125 26.8125 C61.11888829 35.51427053 59.12042162 41.80065025 53.09765625 48.20703125 C46.58286548 53.77553956 39.16865578 56.14718512 30.69921875 56.09765625 C29.81838623 56.09515869 28.93755371 56.09266113 28.0300293 56.09008789 C26.92699463 56.08098389 25.82395996 56.07187988 24.6875 56.0625 C19.3971875 56.0315625 19.3971875 56.0315625 14 56 C14 63.59 14 71.18 14 79 C9.38 79 4.76 79 0 79 C0 52.93 0 26.86 0 0 Z " fill="#14BFCC" transform="translate(528,619)"/>
<path d="M0 0 C4.29 0 8.58 0 13 0 C13 27.72 13 55.44 13 84 C9.04 84 5.08 84 1 84 C0.34 82.02 -0.32 80.04 -1 78 C-2.010625 78.78375 -3.02125 79.5675 -4.0625 80.375 C-10.71239325 85.06045373 -18.02719216 86.05135928 -26 85 C-32.783155 82.81691563 -38.36782838 79.20874336 -42 73 C-46.25677666 63.70160348 -47.88917523 54.52472271 -44.375 44.75 C-40.7705531 36.81013444 -36.09781691 32.21150095 -28 29 C-21.80845687 26.93615229 -12.5804449 26.77257203 -6.390625 28.89453125 C-4.5 30 -4.5 30 -2 32 C-2 32.66 -2 33.32 -2 34 C-1.34 34 -0.68 34 0 34 C0 22.78 0 11.56 0 0 Z " fill="#F6F7F8" transform="translate(436,614)"/>
<path d="M0 0 C4.64829993 3.72716894 8.3436406 7.57070506 9.75390625 13.45703125 C10.7682192 23.19443558 10.99428941 32.35975359 4.75390625 40.45703125 C-1.15804252 47.3587633 -8.51208493 50.78691215 -17.48828125 51.8359375 C-26.51775825 52.16524784 -33.90558433 50.33714189 -41.05859375 44.70703125 C-46.65441025 39.49485228 -49.9000173 33.70388372 -50.51953125 26.1015625 C-50.79837947 15.58040459 -49.06773755 9.35738083 -41.80859375 1.58203125 C-30.74299223 -8.78746952 -12.1007931 -8.31271874 0 0 Z " fill="#13B9CA" transform="translate(703.24609375,647.54296875)"/>
<path d="M0 0 C6.62917739 4.33351781 9.41244391 10.47561297 11.859375 17.81640625 C12.77340527 27.66096176 11.24347787 35.79751976 5.109375 43.69140625 C-1.06792318 50.30438289 -10.00961166 52.82960847 -18.828125 53.25390625 C-27.20015502 53.086046 -34.87689938 50.26492376 -41.140625 44.62890625 C-47.64558724 37.20147993 -48.87883526 29.12070168 -48.5859375 19.4453125 C-47.73226988 12.48867027 -44.98915458 7.23093404 -39.890625 2.44140625 C-38.67028175 1.52549831 -37.41892645 0.64951514 -36.140625 -0.18359375 C-35.51800781 -0.59609375 -34.89539063 -1.00859375 -34.25390625 -1.43359375 C-24.05631211 -7.02770254 -9.87323877 -5.4591083 0 0 Z " fill="#F7F7F9" transform="translate(372.140625,646.18359375)"/>
<path d="M0 0 C1.22420654 -0.00161133 2.44841309 -0.00322266 3.7097168 -0.00488281 C12.40848355 0.1056557 12.40848355 0.1056557 15.8125 2.375 C14.30478551 3.88271449 12.89435997 3.62121063 10.7890625 3.76953125 C-38.33058292 7.5918715 -80.82330121 28.58785332 -116.1875 62.375 C-116.91453125 63.04917969 -117.6415625 63.72335937 -118.390625 64.41796875 C-151.63356623 96.10687005 -166.25957734 140.06957948 -172.1875 184.375 C-172.5175 184.375 -172.8475 184.375 -173.1875 184.375 C-173.72548828 146.93515381 -173.72548828 146.93515381 -168.1875 129.375 C-167.96191406 128.57191406 -167.73632812 127.76882813 -167.50390625 126.94140625 C-160.55448961 102.40250567 -147.7138658 79.86948886 -130.1875 61.375 C-128.99365041 60.00550943 -127.80582385 58.63073759 -126.625 57.25 C-103.79476656 31.25466602 -70.85677133 11.97773869 -37.1875 4.375 C-36.41116211 4.19163086 -35.63482422 4.00826172 -34.83496094 3.81933594 C-23.1994667 1.13212332 -11.94883115 0.01533179 0 0 Z " fill="#0E71DA" transform="translate(480.1875,276.625)"/>
<path d="M0 0 C2.31640625 1.60546875 2.31640625 1.60546875 3.31640625 4.60546875 C2.5390625 6.8671875 2.5390625 6.8671875 1.37890625 9.29296875 C0.99863281 10.10121094 0.61835938 10.90945313 0.2265625 11.7421875 C-0.07378906 12.35707031 -0.37414062 12.97195313 -0.68359375 13.60546875 C-1.24046875 13.41210938 -1.79734375 13.21875 -2.37109375 13.01953125 C-14.88672815 8.74899383 -25.9004478 6.40986495 -38.68359375 11.60546875 C-44.88309977 15.29073066 -48.17899503 20.70794943 -50.265625 27.5 C-51.97702689 36.12098707 -51.05593112 44.94212475 -46.68359375 52.60546875 C-41.84282329 58.45311946 -36.22100616 62.35951351 -28.68359375 63.60546875 C-19.24519805 64.42913418 -11.63231833 63.01214026 -3.4453125 58.3125 C-1.68359375 57.60546875 -1.68359375 57.60546875 1.31640625 58.60546875 C4.41922483 64.47866106 4.41922483 64.47866106 4.125 67.703125 C3.06888286 70.18780639 2.06173732 70.62758533 -0.37109375 71.73046875 C-1.09554687 72.05917969 -1.82 72.38789062 -2.56640625 72.7265625 C-14.06954623 77.50185124 -27.78214701 78.63985748 -39.68359375 74.60546875 C-40.38613281 74.37214844 -41.08867187 74.13882813 -41.8125 73.8984375 C-51.97764975 70.02684134 -58.76592362 62.6251441 -63.625 53.0859375 C-67.57101355 43.83974338 -67.76529764 29.73683426 -64.40234375 20.32421875 C-58.59093588 8.17309321 -50.91747204 1.84338109 -38.68359375 -3.39453125 C-26.65273356 -7.40481798 -11.21070976 -5.46370331 0 0 Z " fill="#F7F8F9" transform="translate(313.68359375,622.39453125)"/>
<path d="M0 0 C0.79954102 0.00572021 1.59908203 0.01144043 2.42285156 0.01733398 C9.8407225 0.24204917 14.51020063 2.05968215 19.9453125 7.14453125 C27.46110013 15.18678709 27.1875 20.98112259 27.1875 32.5 C13.3275 32.5 -0.5325 32.5 -14.8125 32.5 C-11.6498603 39.5105159 -11.6498603 39.5105159 -6.8125 44.5 C0.80900029 46.95801633 8.70674234 45.74649944 16.09375 43.15625 C18.1875 42.5 18.1875 42.5 21.1875 42.5 C23.22185531 46.22965139 24.1875 48.16905042 24.1875 52.5 C22.60550369 53.14910154 21.02184276 53.79414694 19.4375 54.4375 C18.11492187 54.97697266 18.11492187 54.97697266 16.765625 55.52734375 C8.04675321 58.81673629 -3.20343753 59.00324401 -11.89453125 55.46484375 C-19.63259864 51.57217034 -25.02578805 45.86013585 -27.8125 37.5 C-28.539615 27.76704642 -29.10500199 18.58169532 -22.8125 10.5 C-16.19383106 3.36488461 -9.73872611 -0.0802419 0 0 Z " fill="#F6F7F8" transform="translate(487.8125,641.5)"/>
<path d="M0 0 C5.80342274 1.48805711 10.17590879 4.59097555 15 8 C12.30317084 13.61943937 9.31830882 18.81052051 5.875 24 C4.88954819 25.50320088 3.90519684 27.00712368 2.921875 28.51171875 C2.18420898 29.639729 2.18420898 29.639729 1.43164062 30.79052734 C-0.7151626 34.10372127 -2.79636784 37.45627782 -4.875 40.8125 C-9.11754285 47.64497712 -13.48541688 54.39065946 -17.88208008 61.12475586 C-22.75736372 68.60143296 -27.55418237 76.12664222 -32.33105469 83.66650391 C-33.41072096 85.36920002 -34.4935818 87.06987664 -35.58032227 88.76806641 C-36.45722686 90.14668409 -37.32229886 91.5330094 -38.16772461 92.93115234 C-40.62853406 96.90544503 -40.62853406 96.90544503 -44.4375 97.875 C-45.95660571 97.95859405 -47.47861266 97.99287962 -49 98 C-50.68802734 98.02126953 -50.68802734 98.02126953 -52.41015625 98.04296875 C-55.60797896 98.06036713 -58.80250665 98.04386805 -62 98 C-61.38153896 94.96330573 -60.4018879 92.76052423 -58.734375 90.15625 C-58.26354492 89.41552246 -57.79271484 88.67479492 -57.30761719 87.91162109 C-56.79360352 87.11578613 -56.27958984 86.31995117 -55.75 85.5 C-55.2127832 84.65904785 -54.67556641 83.8180957 -54.12207031 82.95166016 C-49.83042573 76.24798693 -45.48909157 69.57616018 -41.1418457 62.90844727 C-36.70828862 56.10526422 -32.31494915 49.27690752 -27.9375 42.4375 C-26.92490112 40.85545776 -26.92490112 40.85545776 -25.8918457 39.24145508 C-22.2263639 33.5065135 -18.58373313 27.75802911 -14.96435547 21.99389648 C-3.09856613 3.09856613 -3.09856613 3.09856613 0 0 Z " fill="#1599CC" transform="translate(470,469)"/>
<path d="M0 0 C-1.32 5.94 -2.64 11.88 -4 18 C-10.87487691 19.65945305 -17.64366959 21.13159782 -24.625 22.25 C-59.54500144 28.17083185 -93.08502329 40.90116808 -124 58 C-126.04150661 59.10446257 -128.08315923 60.20865532 -130.125 61.3125 C-132.70863152 62.71699751 -135.20809527 64.13438222 -137.6796875 65.73046875 C-138.82824219 66.35888672 -138.82824219 66.35888672 -140 67 C-140.66 66.67 -141.32 66.34 -142 66 C-136.08664685 60.53736514 -130.00118271 55.63044178 -123.375 51.0625 C-122.4989209 50.4555127 -121.6228418 49.84852539 -120.72021484 49.22314453 C-113.32576098 44.14359366 -105.81425376 39.40259912 -98 35 C-97.16710449 34.52820313 -96.33420898 34.05640625 -95.47607422 33.5703125 C-78.15999579 23.80814487 -60.99969145 16.08297348 -42.17675781 9.74169922 C-40.38879253 9.13247552 -38.6108007 8.49405705 -36.8359375 7.84765625 C-30.21857152 5.47341399 -23.46557118 3.83681653 -16.625 2.25 C-15.19631592 1.91524658 -15.19631592 1.91524658 -13.73876953 1.57373047 C-12.82724121 1.36893066 -11.91571289 1.16413086 -10.9765625 0.953125 C-10.16268066 0.76911133 -9.34879883 0.58509766 -8.51025391 0.39550781 C-6 0 -6 0 0 0 Z " fill="#1A81DA" transform="translate(422,445)"/>
<path d="M0 0 C0 5.94 0 11.88 0 18 C6.27 18 12.54 18 19 18 C19 21.63 19 25.26 19 29 C12.73 29 6.46 29 0 29 C0.11995169 32.93288412 0.2426272 36.86553463 0.37231445 40.7980957 C0.43687006 42.79303319 0.4967783 44.78811929 0.55664062 46.78320312 C0.59853516 48.03681641 0.64042969 49.29042969 0.68359375 50.58203125 C0.72025146 51.73936768 0.75690918 52.8967041 0.79467773 54.08911133 C0.88328509 57.0643446 0.88328509 57.0643446 2 60 C4.46009963 61.23004981 6.13172806 61.13314027 8.875 61.125 C9.73867188 61.12757813 10.60234375 61.13015625 11.4921875 61.1328125 C14.28016513 61.06517236 14.28016513 61.06517236 18 60 C18.99 63.3 19.98 66.6 21 70 C12.82529907 73.79116565 4.94999939 76.07190867 -3.875 72.875 C-8.07177192 70.35693685 -10.78261912 67.43476177 -13 63 C-13.08658569 60.44637396 -13.11562516 57.9204558 -13.09765625 55.3671875 C-13.0962413 54.61535187 -13.09482635 53.86351624 -13.09336853 53.08889771 C-13.08776465 50.6842249 -13.07521157 48.27964473 -13.0625 45.875 C-13.0574855 44.24609509 -13.0529225 42.61718873 -13.04882812 40.98828125 C-13.03779397 36.99215173 -13.02052679 32.99609158 -13 29 C-16.3 29 -19.6 29 -23 29 C-23 25.37 -23 21.74 -23 18 C-19.7 18 -16.4 18 -13 18 C-13 12.72 -13 7.44 -13 2 C-6 0 -6 0 0 0 Z " fill="#16BCCD" transform="translate(740,625)"/>
<path d="M0 0 C4.86896303 0.59619955 9.32790951 1.56976822 14 3 C12.45046294 9.26054569 8.85724061 14.09689861 5.3125 19.375 C3.94334403 21.44270832 2.57621667 23.51176108 1.2109375 25.58203125 C0.5106543 26.64373535 -0.18962891 27.70543945 -0.91113281 28.79931641 C-4.20177503 33.84142947 -7.38580451 38.94809134 -10.5625 44.0625 C-15.630743 52.21063925 -20.72717817 60.33934812 -25.875 68.4375 C-26.47642822 69.38568604 -27.07785645 70.33387207 -27.69750977 71.31079102 C-28.24850342 72.17631592 -28.79949707 73.04184082 -29.3671875 73.93359375 C-29.85300293 74.69728271 -30.33881836 75.46097168 -30.83935547 76.24780273 C-32 78 -32 78 -33 79 C-34.66617115 79.04063832 -36.33388095 79.042721 -38 79 C-38.70429659 77.61256594 -39.38777598 76.21455365 -40.0625 74.8125 C-40.44535156 74.03519531 -40.82820313 73.25789062 -41.22265625 72.45703125 C-42.36526471 68.84546983 -41.84131345 66.62186155 -40.10424805 63.27319336 C-38.88619884 61.17151888 -37.60990547 59.11614111 -36.3125 57.0625 C-35.82773193 56.28253662 -35.34296387 55.50257324 -34.84350586 54.69897461 C-33.23912439 52.12613935 -31.62160014 49.56201469 -30 47 C-29.43990234 46.11441406 -28.87980469 45.22882813 -28.30273438 44.31640625 C-25.38229843 39.7058879 -22.45072951 35.10260318 -19.51171875 30.50390625 C-15.61668167 24.40746709 -11.75714436 18.28885704 -7.90649414 12.16430664 C-5.32707166 8.06955882 -2.70497132 4.0130091 0 0 Z " fill="#0A6AD8" transform="translate(440,462)"/>
<path d="M0 0 C4.29 0 8.58 0 13 0 C13 27.06 13 54.12 13 82 C8.71 82 4.42 82 0 82 C0 54.94 0 27.88 0 0 Z " fill="#0EBFCE" transform="translate(629,615)"/>
<path d="M0 0 C4.455 -0.0928125 4.455 -0.0928125 9 -0.1875 C9.91910156 -0.21481201 10.83820312 -0.24212402 11.78515625 -0.27026367 C18.95621614 -0.34175902 24.18592291 0.88758593 29.9609375 5.22265625 C33.79058198 10.43889615 32.85671175 16.86135675 32 23 C30.22877489 26.86571565 27.51373375 28.65751084 24 31 C18.89600477 32.21852138 13.83640834 32.1161036 8.625 32.0625 C4.355625 32.0315625 4.355625 32.0315625 0 32 C0 21.44 0 10.88 0 0 Z " fill="#041C35" transform="translate(542,631)"/>
<path d="M0 0 C0.11660824 3.39554235 0.18738372 6.79056679 0.25 10.1875 C0.30027344 11.62706055 0.30027344 11.62706055 0.3515625 13.09570312 C0.45071136 20.25920817 0.45071136 20.25920817 -1.86328125 24.0625 C-7.4399125 29.1191894 -12.5927974 29.59790257 -19.9296875 29.4140625 C-24.56547622 28.7888798 -26.03228677 27.59249496 -29 24 C-32.75163151 18.74771588 -32.6778459 13.2213254 -32 7 C-30.34182436 2.28729029 -27.87396648 -0.84677147 -24 -4 C-15.45611122 -6.78173123 -7.52818102 -4.05912964 0 0 Z " fill="#091E36" transform="translate(436,658)"/>
<path d="M0 0 C3.93083369 2.20126686 6.02499666 5.96071789 7.7578125 9.984375 C8.73625871 16.77661208 7.8221991 21.49196067 3.7578125 26.984375 C-1.43022507 31.79280007 -5.64749291 32.35357571 -12.515625 32.25390625 C-16.47353396 31.86265164 -18.40311663 30.75420024 -21.2421875 27.984375 C-25.26373793 22.73997068 -25.92922823 17.32312533 -25.69140625 10.828125 C-25.01381348 6.53866817 -23.44642003 3.87579328 -20.2421875 0.984375 C-13.76839995 -3.47534531 -6.96548698 -2.89545733 0 0 Z " fill="#041C34" transform="translate(692.2421875,655.015625)"/>
<path d="M0 0 C2.79108116 1.32144108 5.25786389 2.80382361 7.75 4.625 C8.67039062 5.29402344 8.67039062 5.29402344 9.609375 5.9765625 C10.29773438 6.48316406 10.29773438 6.48316406 11 7 C10.09030274 11.28000332 7.96213924 14.54585955 5.625 18.1875 C5.18164307 18.8872998 4.73828613 19.58709961 4.28149414 20.30810547 C2.8615871 22.54347111 1.43250069 24.77268624 0 27 C-0.46325684 27.7204248 -0.92651367 28.44084961 -1.40380859 29.18310547 C-5.20310034 35.08168953 -5.20310034 35.08168953 -6.96899414 37.7512207 C-9.19742185 41.1300571 -11.30834265 44.49986145 -13.203125 48.078125 C-18.18811028 57.2220583 -18.18811028 57.2220583 -23.56640625 59.53125 C-28.0962249 60.53477906 -32.36769667 61 -37 61 C-36.47085464 56.15414247 -34.15480359 52.62422099 -31.5625 48.625 C-31.11583984 47.92310547 -30.66917969 47.22121094 -30.20898438 46.49804688 C-26.80119974 41.1689026 -23.29418973 35.90670223 -19.76098633 30.66015625 C-16.21610528 25.37862401 -12.84206133 19.99955414 -9.49072266 14.59375 C-6.42791888 9.65984708 -3.27674564 4.79523752 0 0 Z " fill="#15BDC9" transform="translate(498,483)"/>
<path d="M0 0 C3.77702297 2.63513231 6.60374735 5.7074947 8.6875 9.875 C9.41594076 16.96834116 9.08209542 23.05661043 4.6875 28.875 C1.30706472 32.01959096 -1.2249776 33.11147891 -5.75 33.25 C-11.55978321 32.93754107 -15.83315199 32.32147361 -20.125 28.125 C-23.72479873 22.77672761 -25.4894111 17.3540776 -24.3125 10.875 C-19.74082284 0.08348739 -11.04627551 -3.75156527 0 0 Z " fill="#081D36" transform="translate(361.3125,654.125)"/>
<path d="M0 0 C0.66 0 1.32 0 2 0 C2.31453125 1.02480469 2.6290625 2.04960937 2.953125 3.10546875 C3.38484559 4.46632713 3.81716934 5.82699427 4.25 7.1875 C4.45496094 7.86103516 4.65992188 8.53457031 4.87109375 9.22851562 C6.44261639 14.10976018 8.20294309 18.55249584 13.0078125 21.0390625 C13.70648437 21.23242188 14.40515625 21.42578125 15.125 21.625 C15.89972656 21.85058594 16.67445313 22.07617188 17.47265625 22.30859375 C18.30667969 22.53675781 19.14070312 22.76492188 20 23 C21.85497006 23.55984493 23.70915587 24.12229576 25.5625 24.6875 C27.04125215 25.12639904 28.52026655 25.56442084 30 26 C30 26.66 30 27.32 30 28 C29.2265625 28.17015625 28.453125 28.3403125 27.65625 28.515625 C16.61204514 30.9446259 16.61204514 30.9446259 7.75 37.5 C5.25779101 42.48441798 3.61933255 47.67687491 2 53 C1.34 53 0.68 53 0 53 C-0.56267578 51.33710938 -0.56267578 51.33710938 -1.13671875 49.640625 C-1.65281444 48.17678995 -2.16978801 46.7132642 -2.6875 45.25 C-2.93177734 44.52039063 -3.17605469 43.79078125 -3.42773438 43.0390625 C-5.10330802 38.37290806 -6.58417737 35.62092426 -11 33 C-13.59599271 32.01699858 -16.09771992 31.15177567 -18.75 30.375 C-21.20247563 29.64526149 -23.58819353 28.86472086 -26 28 C-26.33 27.34 -26.66 26.68 -27 26 C-26.2265625 25.75765625 -25.453125 25.5153125 -24.65625 25.265625 C-21.41943311 24.22407501 -18.20761279 23.12816773 -15 22 C-13.7934375 21.58427734 -13.7934375 21.58427734 -12.5625 21.16015625 C-8.46709355 19.47700625 -6.56615864 17.86533662 -4.6875 13.8125 C-4.09235484 12.22015607 -3.53063828 10.61498606 -3 9 C-2.70222656 8.14664062 -2.40445313 7.29328125 -2.09765625 6.4140625 C-1.36862931 4.28409438 -0.67059326 2.14894657 0 0 Z " fill="#F4F5F7" transform="translate(687,280)"/>
<path d="M0 0 C4.62 0 9.24 0 14 0 C14 18.15 14 36.3 14 55 C9.38 55 4.76 55 0 55 C0 36.85 0 18.7 0 0 Z " fill="#0FB8C7" transform="translate(599,643)"/>
<path d="M0 0 C3.9162195 1.95810975 6.88260275 4.11810504 9 8 C9 9.65 9 11.3 9 13 C-0.57 13 -10.14 13 -20 13 C-17.57889423 4.52612981 -17.57889423 4.52612981 -13.1953125 1.10546875 C-8.92384982 -1.04546352 -4.62218317 -0.822651 0 0 Z " fill="#0D223A" transform="translate(493,652)"/>
<path d="M0 0 C3 0 3 0 5.125 1.9375 C5.54265625 2.39125 5.9603125 2.845 6.390625 3.3125 C7.65666819 4.6400016 8.9963044 5.89733376 10.359375 7.125 C11.18953125 7.888125 12.0196875 8.65125 12.875 9.4375 C13.67679688 10.15808594 14.47859375 10.87867188 15.3046875 11.62109375 C17 14 17 14 16.7578125 17.28515625 C16.50773438 18.18105469 16.25765625 19.07695312 16 20 C13.48025747 20.65035371 10.95934065 21.29537493 8.4375 21.9375 C7.73302734 22.11990234 7.02855469 22.30230469 6.30273438 22.49023438 C1.87862902 23.6115514 -2.47055438 24.43456329 -7 25 C-7 23.02 -7 21.04 -7 19 C-5.0636296 18.49564306 -3.12585854 17.99666126 -1.1875 17.5 C-0.10855469 17.2215625 0.97039063 16.943125 2.08203125 16.65625 C5 16 5 16 8 16 C6.89718873 14.72799029 5.79269231 13.45744147 4.6875 12.1875 C4.07261719 11.47980469 3.45773437 10.77210938 2.82421875 10.04296875 C1.06871023 8.01452185 1.06871023 8.01452185 -0.74609375 6.37109375 C-1.15988281 5.91863281 -1.57367187 5.46617187 -2 5 C-1.74853421 2.86254078 -1.54074221 1.54074221 0 0 Z " fill="#F1F2F5" transform="translate(567,339)"/>
<path d="M0 0 C0 1.98 0 3.96 0 6 C-1.37285156 6.41572266 -1.37285156 6.41572266 -2.7734375 6.83984375 C-4.55621094 7.38318359 -4.55621094 7.38318359 -6.375 7.9375 C-7.55835938 8.29714844 -8.74171875 8.65679687 -9.9609375 9.02734375 C-12.87926818 9.87576274 -12.87926818 9.87576274 -15 11 C-11.7 14.3 -8.4 17.6 -5 21 C-5.99 22.32 -6.98 23.64 -8 25 C-11.99210633 23.31962434 -15.08985923 20.63756706 -18.3125 17.8125 C-18.87517578 17.35552734 -19.43785156 16.89855469 -20.01757812 16.42773438 C-21.61328125 15.01953125 -21.61328125 15.01953125 -24 12 C-23.85546875 8.13671875 -23.85546875 8.13671875 -23 5 C-21.87980469 4.72285156 -20.75960937 4.44570313 -19.60546875 4.16015625 C-18.13279698 3.79433333 -16.66014158 3.42844447 -15.1875 3.0625 C-14.08051758 2.78889648 -14.08051758 2.78889648 -12.95117188 2.50976562 C-2.86647727 0 -2.86647727 0 0 0 Z " fill="#EDEFF3" transform="translate(534,330)"/>
<path d="M0 0 C2.6875 0.3125 2.6875 0.3125 5 1 C3.63019967 4.96818446 1.83747773 7.68560311 -0.875 10.875 C-1.6690625 11.82246094 -2.463125 12.76992188 -3.28125 13.74609375 C-3.714375 14.26155762 -4.1475 14.77702148 -4.59375 15.30810547 C-7.23185555 18.4820762 -9.80001368 21.71228841 -12.375 24.9375 C-12.88659668 25.57606934 -13.39819336 26.21463867 -13.92529297 26.87255859 C-16.33121673 29.88135884 -18.71430398 32.89798397 -21 36 C-22.65 35.67 -24.3 35.34 -26 35 C-25.47531802 30.6976078 -22.768901 27.86188765 -20.125 24.625 C-19.12733672 23.38172498 -18.12994923 22.13822862 -17.1328125 20.89453125 C-16.61750977 20.25596191 -16.10220703 19.61739258 -15.57128906 18.95947266 C-14.00791745 17.00987344 -12.46532115 15.04572019 -10.9296875 13.07421875 C-10.43839355 12.44370605 -9.94709961 11.81319336 -9.44091797 11.16357422 C-8.49903565 9.95358579 -7.55792196 8.74299855 -6.61767578 7.53173828 C-1.94451219 1.55785126 -1.94451219 1.55785126 0 0 Z " fill="#EDEFF3" transform="translate(558,328)"/>
<path d="M0 0 C2.5 1 2.5 1 4 3 C4.45338908 6.17372355 4.69044625 7.98989661 4 11 C1.28707652 14.2883921 -0.34816929 14.90851499 -4.5625 15.5 C-8 15 -8 15 -10.4375 13.4375 C-12.60396028 10.05782196 -12.56288002 7.94016013 -12 4 C-9.05798919 -0.78076756 -5.13495275 -0.83127309 0 0 Z " fill="#17C0CB" transform="translate(610,618)"/>
<path d="M0 0 C3.93265896 -0.04947698 7.86519714 -0.08575578 11.7980957 -0.10986328 C13.79319618 -0.12485495 15.78820946 -0.15026731 17.78320312 -0.17578125 C19.66362305 -0.18544922 19.66362305 -0.18544922 21.58203125 -0.1953125 C22.73936768 -0.20578613 23.8967041 -0.21625977 25.08911133 -0.22705078 C28 0 28 0 31 2 C27.82781337 5.17218663 18.30272688 4.08812898 13.9375 4.1875 C10 4 10 4 8 2 C5.34462628 1.43479997 2.70855287 1.26211802 0 1 C0 0.67 0 0.34 0 0 Z " fill="#1271BD" transform="translate(465,277)"/>
<path d="M0 0 C1.32 0.66 2.64 1.32 4 2 C2.56904349 4.86191302 0.56109874 5.46054572 -2.25 6.9375 C-5.14875734 8.4691407 -7.9737363 9.98315371 -10.734375 11.75390625 C-11.48203125 12.16511719 -12.2296875 12.57632812 -13 13 C-13.66 12.67 -14.32 12.34 -15 12 C-10.20968493 7.61420043 -5.54110713 3.40991208 0 0 Z " fill="#1074CF" transform="translate(295,499)"/>
<path d="M0 0 C2.46176937 0.96712368 4.24786572 2.24936982 6.328125 3.87890625 C7.03453125 4.42675781 7.7409375 4.97460938 8.46875 5.5390625 C9.26539063 6.17134766 9.26539063 6.17134766 10.078125 6.81640625 C9.748125 7.47640625 9.418125 8.13640625 9.078125 8.81640625 C4.458125 6.50640625 -0.161875 4.19640625 -4.921875 1.81640625 C-1.921875 -0.18359375 -1.921875 -0.18359375 0 0 Z " fill="#0CACA3" transform="translate(727.921875,514.18359375)"/>
<path d="M0 0 C0.66 0.33 1.32 0.66 2 1 C1.88566637 3.25056722 1.75813564 5.50046674 1.625 7.75 C1.52058594 9.62945312 1.52058594 9.62945312 1.4140625 11.546875 C1.04676696 14.60998121 0.60288714 16.41974266 -1 19 C-1.02683987 16.02077407 -1.04676037 13.04178705 -1.0625 10.0625 C-1.07087891 9.21236328 -1.07925781 8.36222656 -1.08789062 7.48632812 C-1.09111328 6.67744141 -1.09433594 5.86855469 -1.09765625 5.03515625 C-1.10289307 4.2862915 -1.10812988 3.53742676 -1.11352539 2.76586914 C-1 1 -1 1 0 0 Z " fill="#066DCD" transform="translate(308,442)"/>
<path d="M0 0 C4.62 0 9.24 0 14 0 C10 4 10 4 6.75 4.25 C5.8425 4.1675 4.935 4.085 4 4 C3.67 3.01 3.34 2.02 3 1 C2.01 0.67 1.02 0.34 0 0 Z " fill="#1483E6" transform="translate(464,278)"/>
<path d="M0 0 C2.6875 0.875 2.6875 0.875 5 2 C5 2.99 5 3.98 5 5 C2.6568787 4.74438677 0.32156597 4.40729228 -2 4 C-2.33 3.34 -2.66 2.68 -3 2 C-2.01 1.34 -1.02 0.68 0 0 Z " fill="#0BCCBC" transform="translate(721,510)"/>
</svg>
